<mxfile host="app.diagrams.net" agent="Mozilla/5.0 (Windows NT 10.0; Win64; x64) AppleWebKit/537.36 (KHTML, like Gecko) Chrome/131.0.0.0 Safari/537.36" version="24.9.3">
  <diagram name="Page-1" id="HB7E5a8Te02KWCHFkE5X">
    <mxGraphModel dx="1938" dy="2098" grid="1" gridSize="10" guides="1" tooltips="1" connect="1" arrows="1" fold="1" page="1" pageScale="1" pageWidth="850" pageHeight="1100" math="0" shadow="0">
      <root>
        <mxCell id="0" />
        <mxCell id="1" parent="0" />
        <mxCell id="3K-KdEBF6QyR_X1sGFoG-333" value="" style="rounded=0;whiteSpace=wrap;html=1;dashed=1;dashPattern=8 8;" parent="1" vertex="1">
          <mxGeometry x="285" y="230" width="1075" height="560" as="geometry" />
        </mxCell>
        <mxCell id="3K-KdEBF6QyR_X1sGFoG-305" value="" style="rounded=0;whiteSpace=wrap;html=1;dashed=1;dashPattern=8 8;" parent="1" vertex="1">
          <mxGeometry x="780" y="-200" width="640" height="370" as="geometry" />
        </mxCell>
        <mxCell id="3K-KdEBF6QyR_X1sGFoG-4" value="" style="endArrow=none;html=1;rounded=0;" parent="1" edge="1">
          <mxGeometry width="50" height="50" relative="1" as="geometry">
            <mxPoint x="270" y="320" as="sourcePoint" />
            <mxPoint x="350" y="320" as="targetPoint" />
          </mxGeometry>
        </mxCell>
        <mxCell id="3K-KdEBF6QyR_X1sGFoG-9" value="" style="group" parent="1" vertex="1" connectable="0">
          <mxGeometry x="310" y="310" width="9" height="23.69534555712272" as="geometry" />
        </mxCell>
        <mxCell id="3K-KdEBF6QyR_X1sGFoG-7" value="" style="rounded=0;whiteSpace=wrap;html=1;" parent="3K-KdEBF6QyR_X1sGFoG-9" vertex="1">
          <mxGeometry width="9" height="23.695345557122707" as="geometry" />
        </mxCell>
        <mxCell id="3K-KdEBF6QyR_X1sGFoG-8" value="" style="triangle;whiteSpace=wrap;html=1;rotation=270;" parent="3K-KdEBF6QyR_X1sGFoG-9" vertex="1">
          <mxGeometry x="1" y="18" width="7" height="4" as="geometry" />
        </mxCell>
        <mxCell id="3K-KdEBF6QyR_X1sGFoG-10" value="" style="endArrow=none;html=1;rounded=0;" parent="1" edge="1">
          <mxGeometry width="50" height="50" relative="1" as="geometry">
            <mxPoint x="270" y="360" as="sourcePoint" />
            <mxPoint x="350" y="360" as="targetPoint" />
          </mxGeometry>
        </mxCell>
        <mxCell id="3K-KdEBF6QyR_X1sGFoG-11" value="" style="group" parent="1" vertex="1" connectable="0">
          <mxGeometry x="310" y="350" width="9" height="23.69534555712272" as="geometry" />
        </mxCell>
        <mxCell id="o5dKdSbPjH1iQsJpWBpS-2" value="" style="group" parent="3K-KdEBF6QyR_X1sGFoG-11" vertex="1" connectable="0">
          <mxGeometry width="9" height="23.695345557122707" as="geometry" />
        </mxCell>
        <mxCell id="3K-KdEBF6QyR_X1sGFoG-12" value="" style="rounded=0;whiteSpace=wrap;html=1;" parent="o5dKdSbPjH1iQsJpWBpS-2" vertex="1">
          <mxGeometry width="9" height="23.695345557122707" as="geometry" />
        </mxCell>
        <mxCell id="3K-KdEBF6QyR_X1sGFoG-13" value="" style="triangle;whiteSpace=wrap;html=1;rotation=270;" parent="o5dKdSbPjH1iQsJpWBpS-2" vertex="1">
          <mxGeometry x="1" y="18" width="7" height="4" as="geometry" />
        </mxCell>
        <mxCell id="3K-KdEBF6QyR_X1sGFoG-18" value="" style="endArrow=none;html=1;rounded=0;" parent="1" edge="1">
          <mxGeometry width="50" height="50" relative="1" as="geometry">
            <mxPoint x="270" y="440" as="sourcePoint" />
            <mxPoint x="350" y="440" as="targetPoint" />
          </mxGeometry>
        </mxCell>
        <mxCell id="3K-KdEBF6QyR_X1sGFoG-19" value="" style="group" parent="1" vertex="1" connectable="0">
          <mxGeometry x="310" y="430" width="9" height="23.69534555712272" as="geometry" />
        </mxCell>
        <mxCell id="3K-KdEBF6QyR_X1sGFoG-20" value="" style="rounded=0;whiteSpace=wrap;html=1;" parent="3K-KdEBF6QyR_X1sGFoG-19" vertex="1">
          <mxGeometry width="9" height="23.695345557122707" as="geometry" />
        </mxCell>
        <mxCell id="3K-KdEBF6QyR_X1sGFoG-21" value="" style="triangle;whiteSpace=wrap;html=1;rotation=270;" parent="3K-KdEBF6QyR_X1sGFoG-19" vertex="1">
          <mxGeometry x="1" y="18" width="7" height="4" as="geometry" />
        </mxCell>
        <mxCell id="3K-KdEBF6QyR_X1sGFoG-22" value="S1" style="text;html=1;align=center;verticalAlign=middle;whiteSpace=wrap;rounded=0;" parent="1" vertex="1">
          <mxGeometry x="230" y="290" width="60" height="30" as="geometry" />
        </mxCell>
        <mxCell id="3K-KdEBF6QyR_X1sGFoG-23" value="S2" style="text;html=1;align=center;verticalAlign=middle;whiteSpace=wrap;rounded=0;" parent="1" vertex="1">
          <mxGeometry x="230" y="330" width="60" height="30" as="geometry" />
        </mxCell>
        <mxCell id="3K-KdEBF6QyR_X1sGFoG-24" value="....." style="text;html=1;align=center;verticalAlign=middle;whiteSpace=wrap;rounded=0;rotation=90;" parent="1" vertex="1">
          <mxGeometry x="284.5" y="390" width="60" height="30" as="geometry" />
        </mxCell>
        <mxCell id="3K-KdEBF6QyR_X1sGFoG-25" value="S5" style="text;html=1;align=center;verticalAlign=middle;whiteSpace=wrap;rounded=0;" parent="1" vertex="1">
          <mxGeometry x="230" y="410" width="60" height="30" as="geometry" />
        </mxCell>
        <mxCell id="3K-KdEBF6QyR_X1sGFoG-59" value="" style="endArrow=none;html=1;rounded=0;" parent="1" edge="1">
          <mxGeometry width="50" height="50" relative="1" as="geometry">
            <mxPoint x="270" y="520" as="sourcePoint" />
            <mxPoint x="350" y="520" as="targetPoint" />
          </mxGeometry>
        </mxCell>
        <mxCell id="3K-KdEBF6QyR_X1sGFoG-60" value="" style="group" parent="1" vertex="1" connectable="0">
          <mxGeometry x="310" y="510" width="9" height="23.69534555712272" as="geometry" />
        </mxCell>
        <mxCell id="3K-KdEBF6QyR_X1sGFoG-61" value="" style="rounded=0;whiteSpace=wrap;html=1;" parent="3K-KdEBF6QyR_X1sGFoG-60" vertex="1">
          <mxGeometry width="9" height="23.695345557122707" as="geometry" />
        </mxCell>
        <mxCell id="3K-KdEBF6QyR_X1sGFoG-62" value="" style="triangle;whiteSpace=wrap;html=1;rotation=270;" parent="3K-KdEBF6QyR_X1sGFoG-60" vertex="1">
          <mxGeometry x="1" y="18" width="7" height="4" as="geometry" />
        </mxCell>
        <mxCell id="3K-KdEBF6QyR_X1sGFoG-63" value="" style="endArrow=none;html=1;rounded=0;" parent="1" edge="1">
          <mxGeometry width="50" height="50" relative="1" as="geometry">
            <mxPoint x="270" y="560" as="sourcePoint" />
            <mxPoint x="350" y="560" as="targetPoint" />
          </mxGeometry>
        </mxCell>
        <mxCell id="3K-KdEBF6QyR_X1sGFoG-64" value="" style="group" parent="1" vertex="1" connectable="0">
          <mxGeometry x="310" y="550" width="9" height="23.69534555712272" as="geometry" />
        </mxCell>
        <mxCell id="3K-KdEBF6QyR_X1sGFoG-65" value="" style="rounded=0;whiteSpace=wrap;html=1;" parent="3K-KdEBF6QyR_X1sGFoG-64" vertex="1">
          <mxGeometry width="9" height="23.695345557122707" as="geometry" />
        </mxCell>
        <mxCell id="3K-KdEBF6QyR_X1sGFoG-66" value="" style="triangle;whiteSpace=wrap;html=1;rotation=270;" parent="3K-KdEBF6QyR_X1sGFoG-64" vertex="1">
          <mxGeometry x="1" y="18" width="7" height="4" as="geometry" />
        </mxCell>
        <mxCell id="3K-KdEBF6QyR_X1sGFoG-67" value="" style="endArrow=none;html=1;rounded=0;" parent="1" edge="1">
          <mxGeometry width="50" height="50" relative="1" as="geometry">
            <mxPoint x="270" y="640" as="sourcePoint" />
            <mxPoint x="350" y="640" as="targetPoint" />
          </mxGeometry>
        </mxCell>
        <mxCell id="3K-KdEBF6QyR_X1sGFoG-68" value="" style="group" parent="1" vertex="1" connectable="0">
          <mxGeometry x="310" y="630" width="9" height="23.69534555712272" as="geometry" />
        </mxCell>
        <mxCell id="3K-KdEBF6QyR_X1sGFoG-69" value="" style="rounded=0;whiteSpace=wrap;html=1;" parent="3K-KdEBF6QyR_X1sGFoG-68" vertex="1">
          <mxGeometry width="9" height="23.695345557122707" as="geometry" />
        </mxCell>
        <mxCell id="3K-KdEBF6QyR_X1sGFoG-70" value="" style="triangle;whiteSpace=wrap;html=1;rotation=270;" parent="3K-KdEBF6QyR_X1sGFoG-68" vertex="1">
          <mxGeometry x="1" y="18" width="7" height="4" as="geometry" />
        </mxCell>
        <mxCell id="3K-KdEBF6QyR_X1sGFoG-71" value="S21" style="text;html=1;align=center;verticalAlign=middle;whiteSpace=wrap;rounded=0;" parent="1" vertex="1">
          <mxGeometry x="230" y="490" width="60" height="30" as="geometry" />
        </mxCell>
        <mxCell id="3K-KdEBF6QyR_X1sGFoG-72" value="S22" style="text;html=1;align=center;verticalAlign=middle;whiteSpace=wrap;rounded=0;" parent="1" vertex="1">
          <mxGeometry x="230" y="530" width="60" height="30" as="geometry" />
        </mxCell>
        <mxCell id="3K-KdEBF6QyR_X1sGFoG-73" value="....." style="text;html=1;align=center;verticalAlign=middle;whiteSpace=wrap;rounded=0;rotation=90;" parent="1" vertex="1">
          <mxGeometry x="284.5" y="590" width="60" height="30" as="geometry" />
        </mxCell>
        <mxCell id="3K-KdEBF6QyR_X1sGFoG-74" value="S25" style="text;html=1;align=center;verticalAlign=middle;whiteSpace=wrap;rounded=0;" parent="1" vertex="1">
          <mxGeometry x="230" y="610" width="60" height="30" as="geometry" />
        </mxCell>
        <mxCell id="3K-KdEBF6QyR_X1sGFoG-75" value="....." style="text;html=1;align=center;verticalAlign=middle;whiteSpace=wrap;rounded=0;rotation=90;" parent="1" vertex="1">
          <mxGeometry x="284.5" y="470" width="60" height="30" as="geometry" />
        </mxCell>
        <mxCell id="3K-KdEBF6QyR_X1sGFoG-76" value="SortAscending5 (Row0)" style="rounded=0;whiteSpace=wrap;html=1;" parent="1" vertex="1">
          <mxGeometry x="350" y="300" width="120" height="170" as="geometry" />
        </mxCell>
        <mxCell id="3K-KdEBF6QyR_X1sGFoG-77" value="SortAscending5 (Row4)" style="rounded=0;whiteSpace=wrap;html=1;" parent="1" vertex="1">
          <mxGeometry x="350" y="500" width="120" height="170" as="geometry" />
        </mxCell>
        <mxCell id="3K-KdEBF6QyR_X1sGFoG-78" value="" style="endArrow=none;html=1;rounded=0;entryX=-0.011;entryY=0.108;entryDx=0;entryDy=0;entryPerimeter=0;" parent="1" target="3K-KdEBF6QyR_X1sGFoG-115" edge="1">
          <mxGeometry width="50" height="50" relative="1" as="geometry">
            <mxPoint x="470" y="320" as="sourcePoint" />
            <mxPoint x="550" y="320" as="targetPoint" />
          </mxGeometry>
        </mxCell>
        <mxCell id="3K-KdEBF6QyR_X1sGFoG-79" value="" style="group" parent="1" vertex="1" connectable="0">
          <mxGeometry x="510" y="310" width="9" height="23.69534555712272" as="geometry" />
        </mxCell>
        <mxCell id="3K-KdEBF6QyR_X1sGFoG-80" value="" style="rounded=0;whiteSpace=wrap;html=1;" parent="3K-KdEBF6QyR_X1sGFoG-79" vertex="1">
          <mxGeometry width="9" height="23.695345557122707" as="geometry" />
        </mxCell>
        <mxCell id="3K-KdEBF6QyR_X1sGFoG-81" value="" style="triangle;whiteSpace=wrap;html=1;rotation=270;" parent="3K-KdEBF6QyR_X1sGFoG-79" vertex="1">
          <mxGeometry x="1" y="18" width="7" height="4" as="geometry" />
        </mxCell>
        <mxCell id="3K-KdEBF6QyR_X1sGFoG-86" value="" style="endArrow=none;html=1;rounded=0;" parent="1" edge="1">
          <mxGeometry width="50" height="50" relative="1" as="geometry">
            <mxPoint x="470" y="360" as="sourcePoint" />
            <mxPoint x="550" y="360" as="targetPoint" />
          </mxGeometry>
        </mxCell>
        <mxCell id="3K-KdEBF6QyR_X1sGFoG-87" value="" style="group" parent="1" vertex="1" connectable="0">
          <mxGeometry x="510" y="350" width="9" height="23.69534555712272" as="geometry" />
        </mxCell>
        <mxCell id="3K-KdEBF6QyR_X1sGFoG-88" value="" style="rounded=0;whiteSpace=wrap;html=1;" parent="3K-KdEBF6QyR_X1sGFoG-87" vertex="1">
          <mxGeometry width="9" height="23.695345557122707" as="geometry" />
        </mxCell>
        <mxCell id="3K-KdEBF6QyR_X1sGFoG-89" value="" style="triangle;whiteSpace=wrap;html=1;rotation=270;" parent="3K-KdEBF6QyR_X1sGFoG-87" vertex="1">
          <mxGeometry x="1" y="18" width="7" height="4" as="geometry" />
        </mxCell>
        <mxCell id="3K-KdEBF6QyR_X1sGFoG-90" value="" style="endArrow=none;html=1;rounded=0;entryX=-0.023;entryY=0.128;entryDx=0;entryDy=0;entryPerimeter=0;" parent="1" target="3K-KdEBF6QyR_X1sGFoG-116" edge="1">
          <mxGeometry width="50" height="50" relative="1" as="geometry">
            <mxPoint x="470" y="440" as="sourcePoint" />
            <mxPoint x="550" y="440" as="targetPoint" />
            <Array as="points">
              <mxPoint x="550" y="440" />
              <mxPoint x="590" y="520" />
            </Array>
          </mxGeometry>
        </mxCell>
        <mxCell id="3K-KdEBF6QyR_X1sGFoG-91" value="" style="group" parent="1" vertex="1" connectable="0">
          <mxGeometry x="510" y="430" width="9" height="23.69534555712272" as="geometry" />
        </mxCell>
        <mxCell id="3K-KdEBF6QyR_X1sGFoG-92" value="" style="rounded=0;whiteSpace=wrap;html=1;" parent="3K-KdEBF6QyR_X1sGFoG-91" vertex="1">
          <mxGeometry width="9" height="23.695345557122707" as="geometry" />
        </mxCell>
        <mxCell id="3K-KdEBF6QyR_X1sGFoG-93" value="" style="triangle;whiteSpace=wrap;html=1;rotation=270;" parent="3K-KdEBF6QyR_X1sGFoG-91" vertex="1">
          <mxGeometry x="1" y="18" width="7" height="4" as="geometry" />
        </mxCell>
        <mxCell id="3K-KdEBF6QyR_X1sGFoG-94" value="" style="endArrow=none;html=1;rounded=0;entryX=-0.006;entryY=0.826;entryDx=0;entryDy=0;entryPerimeter=0;" parent="1" target="3K-KdEBF6QyR_X1sGFoG-115" edge="1">
          <mxGeometry width="50" height="50" relative="1" as="geometry">
            <mxPoint x="470" y="520" as="sourcePoint" />
            <mxPoint x="550" y="520" as="targetPoint" />
            <Array as="points">
              <mxPoint x="550" y="520" />
              <mxPoint x="590" y="440" />
            </Array>
          </mxGeometry>
        </mxCell>
        <mxCell id="3K-KdEBF6QyR_X1sGFoG-95" value="" style="group" parent="1" vertex="1" connectable="0">
          <mxGeometry x="510" y="510" width="9" height="23.69534555712272" as="geometry" />
        </mxCell>
        <mxCell id="3K-KdEBF6QyR_X1sGFoG-96" value="" style="rounded=0;whiteSpace=wrap;html=1;" parent="3K-KdEBF6QyR_X1sGFoG-95" vertex="1">
          <mxGeometry width="9" height="23.695345557122707" as="geometry" />
        </mxCell>
        <mxCell id="3K-KdEBF6QyR_X1sGFoG-97" value="" style="triangle;whiteSpace=wrap;html=1;rotation=270;" parent="3K-KdEBF6QyR_X1sGFoG-95" vertex="1">
          <mxGeometry x="1" y="18" width="7" height="4" as="geometry" />
        </mxCell>
        <mxCell id="3K-KdEBF6QyR_X1sGFoG-103" value="" style="endArrow=none;html=1;rounded=0;" parent="1" edge="1">
          <mxGeometry width="50" height="50" relative="1" as="geometry">
            <mxPoint x="470" y="560" as="sourcePoint" />
            <mxPoint x="550" y="560" as="targetPoint" />
          </mxGeometry>
        </mxCell>
        <mxCell id="3K-KdEBF6QyR_X1sGFoG-104" value="" style="group" parent="1" vertex="1" connectable="0">
          <mxGeometry x="510" y="550" width="9" height="23.69534555712272" as="geometry" />
        </mxCell>
        <mxCell id="3K-KdEBF6QyR_X1sGFoG-105" value="" style="rounded=0;whiteSpace=wrap;html=1;" parent="3K-KdEBF6QyR_X1sGFoG-104" vertex="1">
          <mxGeometry width="9" height="23.695345557122707" as="geometry" />
        </mxCell>
        <mxCell id="3K-KdEBF6QyR_X1sGFoG-106" value="" style="triangle;whiteSpace=wrap;html=1;rotation=270;" parent="3K-KdEBF6QyR_X1sGFoG-104" vertex="1">
          <mxGeometry x="1" y="18" width="7" height="4" as="geometry" />
        </mxCell>
        <mxCell id="3K-KdEBF6QyR_X1sGFoG-107" value="" style="endArrow=none;html=1;rounded=0;entryX=-0.004;entryY=0.827;entryDx=0;entryDy=0;entryPerimeter=0;" parent="1" target="3K-KdEBF6QyR_X1sGFoG-116" edge="1">
          <mxGeometry width="50" height="50" relative="1" as="geometry">
            <mxPoint x="470" y="640" as="sourcePoint" />
            <mxPoint x="550" y="640" as="targetPoint" />
          </mxGeometry>
        </mxCell>
        <mxCell id="3K-KdEBF6QyR_X1sGFoG-108" value="" style="group" parent="1" vertex="1" connectable="0">
          <mxGeometry x="510" y="630" width="9" height="23.69534555712272" as="geometry" />
        </mxCell>
        <mxCell id="3K-KdEBF6QyR_X1sGFoG-109" value="" style="rounded=0;whiteSpace=wrap;html=1;" parent="3K-KdEBF6QyR_X1sGFoG-108" vertex="1">
          <mxGeometry width="9" height="23.695345557122707" as="geometry" />
        </mxCell>
        <mxCell id="3K-KdEBF6QyR_X1sGFoG-110" value="" style="triangle;whiteSpace=wrap;html=1;rotation=270;" parent="3K-KdEBF6QyR_X1sGFoG-108" vertex="1">
          <mxGeometry x="1" y="18" width="7" height="4" as="geometry" />
        </mxCell>
        <mxCell id="3K-KdEBF6QyR_X1sGFoG-111" value="min1" style="text;html=1;align=center;verticalAlign=middle;whiteSpace=wrap;rounded=0;" parent="1" vertex="1">
          <mxGeometry x="459" y="290" width="60" height="30" as="geometry" />
        </mxCell>
        <mxCell id="3K-KdEBF6QyR_X1sGFoG-112" value="max1" style="text;html=1;align=center;verticalAlign=middle;whiteSpace=wrap;rounded=0;" parent="1" vertex="1">
          <mxGeometry x="459" y="440" width="60" height="30" as="geometry" />
        </mxCell>
        <mxCell id="3K-KdEBF6QyR_X1sGFoG-113" value="min5" style="text;html=1;align=center;verticalAlign=middle;whiteSpace=wrap;rounded=0;" parent="1" vertex="1">
          <mxGeometry x="459" y="490" width="60" height="30" as="geometry" />
        </mxCell>
        <mxCell id="3K-KdEBF6QyR_X1sGFoG-114" value="max5" style="text;html=1;align=center;verticalAlign=middle;whiteSpace=wrap;rounded=0;" parent="1" vertex="1">
          <mxGeometry x="459" y="610" width="60" height="30" as="geometry" />
        </mxCell>
        <mxCell id="3K-KdEBF6QyR_X1sGFoG-115" value="SortAscending5 (Col0)" style="rounded=0;whiteSpace=wrap;html=1;" parent="1" vertex="1">
          <mxGeometry x="620" y="300" width="120" height="170" as="geometry" />
        </mxCell>
        <mxCell id="3K-KdEBF6QyR_X1sGFoG-116" value="SortAscending5 (Col4)" style="rounded=0;whiteSpace=wrap;html=1;" parent="1" vertex="1">
          <mxGeometry x="620" y="500" width="120" height="170" as="geometry" />
        </mxCell>
        <mxCell id="3K-KdEBF6QyR_X1sGFoG-141" value="" style="endArrow=none;html=1;rounded=0;" parent="1" edge="1">
          <mxGeometry width="50" height="50" relative="1" as="geometry">
            <mxPoint x="740" y="320" as="sourcePoint" />
            <mxPoint x="820" y="320" as="targetPoint" />
          </mxGeometry>
        </mxCell>
        <mxCell id="3K-KdEBF6QyR_X1sGFoG-142" value="" style="group" parent="1" vertex="1" connectable="0">
          <mxGeometry x="780" y="310" width="9" height="23.69534555712272" as="geometry" />
        </mxCell>
        <mxCell id="3K-KdEBF6QyR_X1sGFoG-143" value="" style="rounded=0;whiteSpace=wrap;html=1;" parent="3K-KdEBF6QyR_X1sGFoG-142" vertex="1">
          <mxGeometry width="9" height="23.695345557122707" as="geometry" />
        </mxCell>
        <mxCell id="3K-KdEBF6QyR_X1sGFoG-144" value="" style="triangle;whiteSpace=wrap;html=1;rotation=270;" parent="3K-KdEBF6QyR_X1sGFoG-142" vertex="1">
          <mxGeometry x="1" y="18" width="7" height="4" as="geometry" />
        </mxCell>
        <mxCell id="3K-KdEBF6QyR_X1sGFoG-145" value="" style="endArrow=none;html=1;rounded=0;" parent="1" edge="1">
          <mxGeometry width="50" height="50" relative="1" as="geometry">
            <mxPoint x="740" y="360" as="sourcePoint" />
            <mxPoint x="820" y="360" as="targetPoint" />
          </mxGeometry>
        </mxCell>
        <mxCell id="3K-KdEBF6QyR_X1sGFoG-146" value="" style="group" parent="1" vertex="1" connectable="0">
          <mxGeometry x="780" y="350" width="9" height="23.69534555712272" as="geometry" />
        </mxCell>
        <mxCell id="3K-KdEBF6QyR_X1sGFoG-147" value="" style="rounded=0;whiteSpace=wrap;html=1;" parent="3K-KdEBF6QyR_X1sGFoG-146" vertex="1">
          <mxGeometry width="9" height="23.695345557122707" as="geometry" />
        </mxCell>
        <mxCell id="3K-KdEBF6QyR_X1sGFoG-148" value="" style="triangle;whiteSpace=wrap;html=1;rotation=270;" parent="3K-KdEBF6QyR_X1sGFoG-146" vertex="1">
          <mxGeometry x="1" y="18" width="7" height="4" as="geometry" />
        </mxCell>
        <mxCell id="3K-KdEBF6QyR_X1sGFoG-153" value="" style="endArrow=none;html=1;rounded=0;" parent="1" edge="1">
          <mxGeometry width="50" height="50" relative="1" as="geometry">
            <mxPoint x="740" y="440" as="sourcePoint" />
            <mxPoint x="820" y="440" as="targetPoint" />
          </mxGeometry>
        </mxCell>
        <mxCell id="3K-KdEBF6QyR_X1sGFoG-154" value="" style="group" parent="1" vertex="1" connectable="0">
          <mxGeometry x="780" y="430" width="9" height="23.69534555712272" as="geometry" />
        </mxCell>
        <mxCell id="3K-KdEBF6QyR_X1sGFoG-155" value="" style="rounded=0;whiteSpace=wrap;html=1;" parent="3K-KdEBF6QyR_X1sGFoG-154" vertex="1">
          <mxGeometry width="9" height="23.695345557122707" as="geometry" />
        </mxCell>
        <mxCell id="3K-KdEBF6QyR_X1sGFoG-156" value="" style="triangle;whiteSpace=wrap;html=1;rotation=270;" parent="3K-KdEBF6QyR_X1sGFoG-154" vertex="1">
          <mxGeometry x="1" y="18" width="7" height="4" as="geometry" />
        </mxCell>
        <mxCell id="3K-KdEBF6QyR_X1sGFoG-183" value="" style="endArrow=none;html=1;rounded=0;entryX=-0.012;entryY=0.653;entryDx=0;entryDy=0;entryPerimeter=0;" parent="1" target="3K-KdEBF6QyR_X1sGFoG-196" edge="1">
          <mxGeometry width="50" height="50" relative="1" as="geometry">
            <mxPoint x="740" y="520" as="sourcePoint" />
            <mxPoint x="820" y="520" as="targetPoint" />
          </mxGeometry>
        </mxCell>
        <mxCell id="3K-KdEBF6QyR_X1sGFoG-184" value="" style="group" parent="1" vertex="1" connectable="0">
          <mxGeometry x="780" y="510" width="9" height="23.69534555712272" as="geometry" />
        </mxCell>
        <mxCell id="3K-KdEBF6QyR_X1sGFoG-185" value="" style="rounded=0;whiteSpace=wrap;html=1;" parent="3K-KdEBF6QyR_X1sGFoG-184" vertex="1">
          <mxGeometry width="9" height="23.695345557122707" as="geometry" />
        </mxCell>
        <mxCell id="3K-KdEBF6QyR_X1sGFoG-186" value="" style="triangle;whiteSpace=wrap;html=1;rotation=270;" parent="3K-KdEBF6QyR_X1sGFoG-184" vertex="1">
          <mxGeometry x="1" y="18" width="7" height="4" as="geometry" />
        </mxCell>
        <mxCell id="3K-KdEBF6QyR_X1sGFoG-187" value="" style="endArrow=none;html=1;rounded=0;entryX=0;entryY=0.132;entryDx=0;entryDy=0;entryPerimeter=0;" parent="1" edge="1">
          <mxGeometry width="50" height="50" relative="1" as="geometry">
            <mxPoint x="740" y="560" as="sourcePoint" />
            <mxPoint x="860" y="622.44" as="targetPoint" />
            <Array as="points">
              <mxPoint x="810" y="560" />
              <mxPoint x="830" y="622" />
            </Array>
          </mxGeometry>
        </mxCell>
        <mxCell id="3K-KdEBF6QyR_X1sGFoG-188" value="" style="group" parent="1" vertex="1" connectable="0">
          <mxGeometry x="780" y="550" width="9" height="23.69534555712272" as="geometry" />
        </mxCell>
        <mxCell id="3K-KdEBF6QyR_X1sGFoG-189" value="" style="rounded=0;whiteSpace=wrap;html=1;" parent="3K-KdEBF6QyR_X1sGFoG-188" vertex="1">
          <mxGeometry width="9" height="23.695345557122707" as="geometry" />
        </mxCell>
        <mxCell id="3K-KdEBF6QyR_X1sGFoG-190" value="" style="triangle;whiteSpace=wrap;html=1;rotation=270;" parent="3K-KdEBF6QyR_X1sGFoG-188" vertex="1">
          <mxGeometry x="1" y="18" width="7" height="4" as="geometry" />
        </mxCell>
        <mxCell id="3K-KdEBF6QyR_X1sGFoG-191" value="" style="endArrow=none;html=1;rounded=0;" parent="1" edge="1">
          <mxGeometry width="50" height="50" relative="1" as="geometry">
            <mxPoint x="740" y="640" as="sourcePoint" />
            <mxPoint x="820" y="640" as="targetPoint" />
          </mxGeometry>
        </mxCell>
        <mxCell id="3K-KdEBF6QyR_X1sGFoG-192" value="" style="group" parent="1" vertex="1" connectable="0">
          <mxGeometry x="780" y="630" width="9" height="23.69534555712272" as="geometry" />
        </mxCell>
        <mxCell id="3K-KdEBF6QyR_X1sGFoG-193" value="" style="rounded=0;whiteSpace=wrap;html=1;" parent="3K-KdEBF6QyR_X1sGFoG-192" vertex="1">
          <mxGeometry width="9" height="23.695345557122707" as="geometry" />
        </mxCell>
        <mxCell id="3K-KdEBF6QyR_X1sGFoG-194" value="" style="triangle;whiteSpace=wrap;html=1;rotation=270;" parent="3K-KdEBF6QyR_X1sGFoG-192" vertex="1">
          <mxGeometry x="1" y="18" width="7" height="4" as="geometry" />
        </mxCell>
        <mxCell id="3K-KdEBF6QyR_X1sGFoG-196" value="SortAscending5 (Diag1)" style="rounded=0;whiteSpace=wrap;html=1;" parent="1" vertex="1">
          <mxGeometry x="860" y="410" width="120" height="170" as="geometry" />
        </mxCell>
        <mxCell id="3K-KdEBF6QyR_X1sGFoG-198" value="" style="endArrow=none;html=1;rounded=0;entryX=0.003;entryY=0.526;entryDx=0;entryDy=0;entryPerimeter=0;" parent="1" target="3K-KdEBF6QyR_X1sGFoG-308" edge="1">
          <mxGeometry width="50" height="50" relative="1" as="geometry">
            <mxPoint x="740" y="410" as="sourcePoint" />
            <mxPoint x="860" y="360" as="targetPoint" />
            <Array as="points">
              <mxPoint x="810" y="410" />
              <mxPoint x="860" y="320" />
            </Array>
          </mxGeometry>
        </mxCell>
        <mxCell id="3K-KdEBF6QyR_X1sGFoG-199" value="" style="group" parent="1" vertex="1" connectable="0">
          <mxGeometry x="780" y="396.3" width="9" height="23.69534555712272" as="geometry" />
        </mxCell>
        <mxCell id="3K-KdEBF6QyR_X1sGFoG-200" value="" style="rounded=0;whiteSpace=wrap;html=1;" parent="3K-KdEBF6QyR_X1sGFoG-199" vertex="1">
          <mxGeometry width="9" height="23.695345557122707" as="geometry" />
        </mxCell>
        <mxCell id="3K-KdEBF6QyR_X1sGFoG-201" value="" style="triangle;whiteSpace=wrap;html=1;rotation=270;" parent="3K-KdEBF6QyR_X1sGFoG-199" vertex="1">
          <mxGeometry x="1" y="18" width="7" height="4" as="geometry" />
        </mxCell>
        <mxCell id="3K-KdEBF6QyR_X1sGFoG-202" value="....." style="text;html=1;align=center;verticalAlign=middle;whiteSpace=wrap;rounded=0;rotation=90;" parent="1" vertex="1">
          <mxGeometry x="754.5" y="460" width="60" height="30" as="geometry" />
        </mxCell>
        <mxCell id="3K-KdEBF6QyR_X1sGFoG-224" value="" style="endArrow=none;html=1;rounded=0;entryX=0;entryY=0.5;entryDx=0;entryDy=0;" parent="1" target="3K-KdEBF6QyR_X1sGFoG-241" edge="1">
          <mxGeometry width="50" height="50" relative="1" as="geometry">
            <mxPoint x="980" y="496.3" as="sourcePoint" />
            <mxPoint x="1060" y="496.3" as="targetPoint" />
          </mxGeometry>
        </mxCell>
        <mxCell id="3K-KdEBF6QyR_X1sGFoG-239" value="mid" style="text;html=1;align=center;verticalAlign=middle;whiteSpace=wrap;rounded=0;" parent="1" vertex="1">
          <mxGeometry x="980" y="460" width="60" height="30" as="geometry" />
        </mxCell>
        <mxCell id="3K-KdEBF6QyR_X1sGFoG-240" value="min" style="text;html=1;align=center;verticalAlign=middle;whiteSpace=wrap;rounded=0;" parent="1" vertex="1">
          <mxGeometry x="1130" y="610" width="60" height="30" as="geometry" />
        </mxCell>
        <mxCell id="3K-KdEBF6QyR_X1sGFoG-241" value="SortingNetwork" style="rounded=0;whiteSpace=wrap;html=1;" parent="1" vertex="1">
          <mxGeometry x="1190" y="410" width="120" height="170" as="geometry" />
        </mxCell>
        <mxCell id="3K-KdEBF6QyR_X1sGFoG-243" value="" style="endArrow=none;html=1;rounded=0;entryX=0;entryY=0.5;entryDx=0;entryDy=0;" parent="1" edge="1">
          <mxGeometry width="50" height="50" relative="1" as="geometry">
            <mxPoint x="1310" y="500" as="sourcePoint" />
            <mxPoint x="1430" y="498.7" as="targetPoint" />
          </mxGeometry>
        </mxCell>
        <mxCell id="3K-KdEBF6QyR_X1sGFoG-244" value="median_o" style="text;html=1;align=center;verticalAlign=middle;whiteSpace=wrap;rounded=0;" parent="1" vertex="1">
          <mxGeometry x="1420" y="470" width="60" height="30" as="geometry" />
        </mxCell>
        <mxCell id="3K-KdEBF6QyR_X1sGFoG-246" value="SortAscending5" style="rounded=0;whiteSpace=wrap;html=1;" parent="1" vertex="1">
          <mxGeometry x="320" y="-40" width="120" height="220" as="geometry" />
        </mxCell>
        <mxCell id="3K-KdEBF6QyR_X1sGFoG-247" value="" style="endArrow=classic;html=1;rounded=0;entryX=0.02;entryY=0.183;entryDx=0;entryDy=0;entryPerimeter=0;" parent="1" target="3K-KdEBF6QyR_X1sGFoG-246" edge="1">
          <mxGeometry width="50" height="50" relative="1" as="geometry">
            <mxPoint x="200" as="sourcePoint" />
            <mxPoint x="250" y="-50" as="targetPoint" />
          </mxGeometry>
        </mxCell>
        <mxCell id="3K-KdEBF6QyR_X1sGFoG-248" value="S1" style="text;html=1;align=center;verticalAlign=middle;whiteSpace=wrap;rounded=0;" parent="1" vertex="1">
          <mxGeometry x="210" y="-30" width="60" height="30" as="geometry" />
        </mxCell>
        <mxCell id="3K-KdEBF6QyR_X1sGFoG-249" value="" style="endArrow=classic;html=1;rounded=0;entryX=-0.001;entryY=0.36;entryDx=0;entryDy=0;entryPerimeter=0;" parent="1" target="3K-KdEBF6QyR_X1sGFoG-246" edge="1">
          <mxGeometry width="50" height="50" relative="1" as="geometry">
            <mxPoint x="200" y="40" as="sourcePoint" />
            <mxPoint x="322" y="41" as="targetPoint" />
          </mxGeometry>
        </mxCell>
        <mxCell id="3K-KdEBF6QyR_X1sGFoG-250" value="S2" style="text;html=1;align=center;verticalAlign=middle;whiteSpace=wrap;rounded=0;" parent="1" vertex="1">
          <mxGeometry x="210" y="10" width="60" height="30" as="geometry" />
        </mxCell>
        <mxCell id="3K-KdEBF6QyR_X1sGFoG-251" value="" style="endArrow=classic;html=1;rounded=0;entryX=0.02;entryY=0.183;entryDx=0;entryDy=0;entryPerimeter=0;" parent="1" edge="1">
          <mxGeometry width="50" height="50" relative="1" as="geometry">
            <mxPoint x="198" y="80" as="sourcePoint" />
            <mxPoint x="320" y="81" as="targetPoint" />
          </mxGeometry>
        </mxCell>
        <mxCell id="3K-KdEBF6QyR_X1sGFoG-252" value="S3" style="text;html=1;align=center;verticalAlign=middle;whiteSpace=wrap;rounded=0;" parent="1" vertex="1">
          <mxGeometry x="210" y="50" width="60" height="30" as="geometry" />
        </mxCell>
        <mxCell id="3K-KdEBF6QyR_X1sGFoG-253" value="" style="endArrow=classic;html=1;rounded=0;entryX=0.001;entryY=0.728;entryDx=0;entryDy=0;entryPerimeter=0;" parent="1" target="3K-KdEBF6QyR_X1sGFoG-246" edge="1">
          <mxGeometry width="50" height="50" relative="1" as="geometry">
            <mxPoint x="199" y="120" as="sourcePoint" />
            <mxPoint x="321" y="121" as="targetPoint" />
          </mxGeometry>
        </mxCell>
        <mxCell id="3K-KdEBF6QyR_X1sGFoG-254" value="" style="endArrow=classic;html=1;rounded=0;entryX=0.02;entryY=0.183;entryDx=0;entryDy=0;entryPerimeter=0;" parent="1" edge="1">
          <mxGeometry width="50" height="50" relative="1" as="geometry">
            <mxPoint x="198" y="160" as="sourcePoint" />
            <mxPoint x="320" y="161" as="targetPoint" />
          </mxGeometry>
        </mxCell>
        <mxCell id="3K-KdEBF6QyR_X1sGFoG-256" value="S4" style="text;html=1;align=center;verticalAlign=middle;whiteSpace=wrap;rounded=0;" parent="1" vertex="1">
          <mxGeometry x="210" y="90" width="60" height="30" as="geometry" />
        </mxCell>
        <mxCell id="3K-KdEBF6QyR_X1sGFoG-257" value="S5" style="text;html=1;align=center;verticalAlign=middle;whiteSpace=wrap;rounded=0;" parent="1" vertex="1">
          <mxGeometry x="210" y="130" width="60" height="30" as="geometry" />
        </mxCell>
        <mxCell id="3K-KdEBF6QyR_X1sGFoG-258" value="" style="endArrow=classic;html=1;rounded=0;entryX=0.02;entryY=0.183;entryDx=0;entryDy=0;entryPerimeter=0;" parent="1" edge="1">
          <mxGeometry width="50" height="50" relative="1" as="geometry">
            <mxPoint x="442" as="sourcePoint" />
            <mxPoint x="564" as="targetPoint" />
          </mxGeometry>
        </mxCell>
        <mxCell id="3K-KdEBF6QyR_X1sGFoG-259" value="min" style="text;html=1;align=center;verticalAlign=middle;whiteSpace=wrap;rounded=0;" parent="1" vertex="1">
          <mxGeometry x="452" y="-30" width="60" height="30" as="geometry" />
        </mxCell>
        <mxCell id="3K-KdEBF6QyR_X1sGFoG-260" value="" style="endArrow=classic;html=1;rounded=0;entryX=0.02;entryY=0.183;entryDx=0;entryDy=0;entryPerimeter=0;" parent="1" edge="1">
          <mxGeometry width="50" height="50" relative="1" as="geometry">
            <mxPoint x="442" y="40" as="sourcePoint" />
            <mxPoint x="564" y="41" as="targetPoint" />
          </mxGeometry>
        </mxCell>
        <mxCell id="3K-KdEBF6QyR_X1sGFoG-261" value="out2" style="text;html=1;align=center;verticalAlign=middle;whiteSpace=wrap;rounded=0;" parent="1" vertex="1">
          <mxGeometry x="452" y="10" width="60" height="30" as="geometry" />
        </mxCell>
        <mxCell id="3K-KdEBF6QyR_X1sGFoG-262" value="" style="endArrow=classic;html=1;rounded=0;entryX=0.02;entryY=0.183;entryDx=0;entryDy=0;entryPerimeter=0;" parent="1" edge="1">
          <mxGeometry width="50" height="50" relative="1" as="geometry">
            <mxPoint x="440" y="80" as="sourcePoint" />
            <mxPoint x="562" y="81" as="targetPoint" />
          </mxGeometry>
        </mxCell>
        <mxCell id="3K-KdEBF6QyR_X1sGFoG-263" value="mid" style="text;html=1;align=center;verticalAlign=middle;whiteSpace=wrap;rounded=0;" parent="1" vertex="1">
          <mxGeometry x="452" y="50" width="60" height="30" as="geometry" />
        </mxCell>
        <mxCell id="3K-KdEBF6QyR_X1sGFoG-264" value="" style="endArrow=classic;html=1;rounded=0;entryX=0.02;entryY=0.183;entryDx=0;entryDy=0;entryPerimeter=0;" parent="1" edge="1">
          <mxGeometry width="50" height="50" relative="1" as="geometry">
            <mxPoint x="441" y="120" as="sourcePoint" />
            <mxPoint x="563" y="121" as="targetPoint" />
          </mxGeometry>
        </mxCell>
        <mxCell id="3K-KdEBF6QyR_X1sGFoG-265" value="" style="endArrow=classic;html=1;rounded=0;entryX=0.02;entryY=0.183;entryDx=0;entryDy=0;entryPerimeter=0;" parent="1" edge="1">
          <mxGeometry width="50" height="50" relative="1" as="geometry">
            <mxPoint x="440" y="160" as="sourcePoint" />
            <mxPoint x="562" y="161" as="targetPoint" />
          </mxGeometry>
        </mxCell>
        <mxCell id="3K-KdEBF6QyR_X1sGFoG-266" value="out4" style="text;html=1;align=center;verticalAlign=middle;whiteSpace=wrap;rounded=0;" parent="1" vertex="1">
          <mxGeometry x="452" y="90" width="60" height="30" as="geometry" />
        </mxCell>
        <mxCell id="3K-KdEBF6QyR_X1sGFoG-267" value="max" style="text;html=1;align=center;verticalAlign=middle;whiteSpace=wrap;rounded=0;" parent="1" vertex="1">
          <mxGeometry x="452" y="130" width="60" height="30" as="geometry" />
        </mxCell>
        <mxCell id="3K-KdEBF6QyR_X1sGFoG-268" value="SortingNetwork" style="rounded=0;whiteSpace=wrap;html=1;" parent="1" vertex="1">
          <mxGeometry x="866" y="-165" width="90" height="140" as="geometry" />
        </mxCell>
        <mxCell id="3K-KdEBF6QyR_X1sGFoG-269" value="" style="endArrow=classic;html=1;rounded=0;entryX=0.01;entryY=0.212;entryDx=0;entryDy=0;entryPerimeter=0;" parent="1" edge="1">
          <mxGeometry width="50" height="50" relative="1" as="geometry">
            <mxPoint x="770.1" y="-134.68" as="sourcePoint" />
            <mxPoint x="865.9999999999999" y="-134.99999999999994" as="targetPoint" />
          </mxGeometry>
        </mxCell>
        <mxCell id="3K-KdEBF6QyR_X1sGFoG-270" value="S1" style="text;html=1;align=center;verticalAlign=middle;whiteSpace=wrap;rounded=0;" parent="1" vertex="1">
          <mxGeometry x="710" y="-150" width="60" height="30" as="geometry" />
        </mxCell>
        <mxCell id="3K-KdEBF6QyR_X1sGFoG-271" value="" style="endArrow=classic;html=1;rounded=0;entryX=0.01;entryY=0.212;entryDx=0;entryDy=0;entryPerimeter=0;" parent="1" edge="1">
          <mxGeometry width="50" height="50" relative="1" as="geometry">
            <mxPoint x="770" y="-95" as="sourcePoint" />
            <mxPoint x="866" y="-95" as="targetPoint" />
          </mxGeometry>
        </mxCell>
        <mxCell id="3K-KdEBF6QyR_X1sGFoG-273" value="S2" style="text;html=1;align=center;verticalAlign=middle;whiteSpace=wrap;rounded=0;" parent="1" vertex="1">
          <mxGeometry x="710" y="-115" width="60" height="30" as="geometry" />
        </mxCell>
        <mxCell id="3K-KdEBF6QyR_X1sGFoG-274" value="" style="endArrow=classic;html=1;rounded=0;entryX=0.01;entryY=0.212;entryDx=0;entryDy=0;entryPerimeter=0;" parent="1" edge="1">
          <mxGeometry width="50" height="50" relative="1" as="geometry">
            <mxPoint x="770" y="-55" as="sourcePoint" />
            <mxPoint x="866" y="-55" as="targetPoint" />
          </mxGeometry>
        </mxCell>
        <mxCell id="3K-KdEBF6QyR_X1sGFoG-275" value="S3" style="text;html=1;align=center;verticalAlign=middle;whiteSpace=wrap;rounded=0;" parent="1" vertex="1">
          <mxGeometry x="710" y="-70" width="60" height="30" as="geometry" />
        </mxCell>
        <mxCell id="3K-KdEBF6QyR_X1sGFoG-276" value="SortingNetwork" style="rounded=0;whiteSpace=wrap;html=1;" parent="1" vertex="1">
          <mxGeometry x="866" y="-5" width="90" height="140" as="geometry" />
        </mxCell>
        <mxCell id="3K-KdEBF6QyR_X1sGFoG-277" value="" style="endArrow=classic;html=1;rounded=0;entryX=0.01;entryY=0.212;entryDx=0;entryDy=0;entryPerimeter=0;" parent="1" edge="1">
          <mxGeometry width="50" height="50" relative="1" as="geometry">
            <mxPoint x="770" y="75" as="sourcePoint" />
            <mxPoint x="866" y="75" as="targetPoint" />
          </mxGeometry>
        </mxCell>
        <mxCell id="3K-KdEBF6QyR_X1sGFoG-278" value="S4" style="text;html=1;align=center;verticalAlign=middle;whiteSpace=wrap;rounded=0;" parent="1" vertex="1">
          <mxGeometry x="710" y="55" width="60" height="30" as="geometry" />
        </mxCell>
        <mxCell id="3K-KdEBF6QyR_X1sGFoG-279" value="" style="endArrow=classic;html=1;rounded=0;entryX=0.01;entryY=0.212;entryDx=0;entryDy=0;entryPerimeter=0;" parent="1" edge="1">
          <mxGeometry width="50" height="50" relative="1" as="geometry">
            <mxPoint x="770" y="115" as="sourcePoint" />
            <mxPoint x="866" y="115" as="targetPoint" />
          </mxGeometry>
        </mxCell>
        <mxCell id="3K-KdEBF6QyR_X1sGFoG-280" value="S5" style="text;html=1;align=center;verticalAlign=middle;whiteSpace=wrap;rounded=0;" parent="1" vertex="1">
          <mxGeometry x="710" y="90" width="60" height="30" as="geometry" />
        </mxCell>
        <mxCell id="3K-KdEBF6QyR_X1sGFoG-281" value="" style="endArrow=classic;html=1;rounded=0;exitX=1.004;exitY=0.788;exitDx=0;exitDy=0;exitPerimeter=0;entryX=0;entryY=0.25;entryDx=0;entryDy=0;" parent="1" source="3K-KdEBF6QyR_X1sGFoG-268" target="3K-KdEBF6QyR_X1sGFoG-276" edge="1">
          <mxGeometry width="50" height="50" relative="1" as="geometry">
            <mxPoint x="1011" y="-35" as="sourcePoint" />
            <mxPoint x="1061" y="-85" as="targetPoint" />
            <Array as="points">
              <mxPoint x="971" y="-55" />
              <mxPoint x="971" y="-15" />
              <mxPoint x="840" y="-15" />
              <mxPoint x="840" y="30" />
            </Array>
          </mxGeometry>
        </mxCell>
        <mxCell id="3K-KdEBF6QyR_X1sGFoG-282" value="" style="endArrow=classic;html=1;rounded=0;" parent="1" edge="1">
          <mxGeometry width="50" height="50" relative="1" as="geometry">
            <mxPoint x="956" y="25" as="sourcePoint" />
            <mxPoint x="1011" y="190" as="targetPoint" />
            <Array as="points">
              <mxPoint x="1010" y="25" />
            </Array>
          </mxGeometry>
        </mxCell>
        <mxCell id="3K-KdEBF6QyR_X1sGFoG-283" value="max" style="text;html=1;align=center;verticalAlign=middle;whiteSpace=wrap;rounded=0;" parent="1" vertex="1">
          <mxGeometry x="956" y="-5" width="60" height="30" as="geometry" />
        </mxCell>
        <mxCell id="3K-KdEBF6QyR_X1sGFoG-284" value="" style="endArrow=classic;html=1;rounded=0;entryX=0;entryY=0.5;entryDx=0;entryDy=0;" parent="1" target="3K-KdEBF6QyR_X1sGFoG-288" edge="1">
          <mxGeometry width="50" height="50" relative="1" as="geometry">
            <mxPoint x="956" y="80" as="sourcePoint" />
            <mxPoint x="1040" y="80" as="targetPoint" />
            <Array as="points">
              <mxPoint x="1000" y="80" />
              <mxPoint x="1040" />
            </Array>
          </mxGeometry>
        </mxCell>
        <mxCell id="3K-KdEBF6QyR_X1sGFoG-286" value="" style="endArrow=classic;html=1;rounded=0;entryX=0;entryY=0.786;entryDx=0;entryDy=0;entryPerimeter=0;" parent="1" target="3K-KdEBF6QyR_X1sGFoG-288" edge="1">
          <mxGeometry width="50" height="50" relative="1" as="geometry">
            <mxPoint x="956" y="120" as="sourcePoint" />
            <mxPoint x="1052" y="120" as="targetPoint" />
            <Array as="points">
              <mxPoint x="1000" y="120" />
              <mxPoint x="1040" y="40" />
            </Array>
          </mxGeometry>
        </mxCell>
        <mxCell id="3K-KdEBF6QyR_X1sGFoG-288" value="SortingNetwork" style="rounded=0;whiteSpace=wrap;html=1;" parent="1" vertex="1">
          <mxGeometry x="1080" y="-70" width="90" height="140" as="geometry" />
        </mxCell>
        <mxCell id="3K-KdEBF6QyR_X1sGFoG-289" value="" style="endArrow=classic;html=1;rounded=0;entryX=0;entryY=0.214;entryDx=0;entryDy=0;entryPerimeter=0;" parent="1" target="3K-KdEBF6QyR_X1sGFoG-288" edge="1">
          <mxGeometry width="50" height="50" relative="1" as="geometry">
            <mxPoint x="956" y="-95" as="sourcePoint" />
            <mxPoint x="1052" y="-95" as="targetPoint" />
            <Array as="points">
              <mxPoint x="1020" y="-95" />
              <mxPoint x="1040" y="-40" />
            </Array>
          </mxGeometry>
        </mxCell>
        <mxCell id="3K-KdEBF6QyR_X1sGFoG-290" value="" style="endArrow=classic;html=1;rounded=0;exitX=1;exitY=0.786;exitDx=0;exitDy=0;exitPerimeter=0;" parent="1" source="3K-KdEBF6QyR_X1sGFoG-288" edge="1">
          <mxGeometry width="50" height="50" relative="1" as="geometry">
            <mxPoint x="1200" y="60" as="sourcePoint" />
            <mxPoint x="1230" y="190" as="targetPoint" />
            <Array as="points">
              <mxPoint x="1230" y="40" />
            </Array>
          </mxGeometry>
        </mxCell>
        <mxCell id="3K-KdEBF6QyR_X1sGFoG-292" value="out4" style="text;html=1;align=center;verticalAlign=middle;whiteSpace=wrap;rounded=0;" parent="1" vertex="1">
          <mxGeometry x="1170" y="15" width="60" height="30" as="geometry" />
        </mxCell>
        <mxCell id="3K-KdEBF6QyR_X1sGFoG-293" value="" style="endArrow=classic;html=1;rounded=0;exitX=1;exitY=0.5;exitDx=0;exitDy=0;" parent="1" source="3K-KdEBF6QyR_X1sGFoG-288" edge="1">
          <mxGeometry width="50" height="50" relative="1" as="geometry">
            <mxPoint x="1250" y="20" as="sourcePoint" />
            <mxPoint x="1270" as="targetPoint" />
          </mxGeometry>
        </mxCell>
        <mxCell id="3K-KdEBF6QyR_X1sGFoG-294" value="" style="endArrow=classic;html=1;rounded=0;exitX=1;exitY=0.5;exitDx=0;exitDy=0;" parent="1" edge="1">
          <mxGeometry width="50" height="50" relative="1" as="geometry">
            <mxPoint x="1170" y="-40" as="sourcePoint" />
            <mxPoint x="1270" y="-40" as="targetPoint" />
          </mxGeometry>
        </mxCell>
        <mxCell id="3K-KdEBF6QyR_X1sGFoG-295" value="SortingNetwork" style="rounded=0;whiteSpace=wrap;html=1;" parent="1" vertex="1">
          <mxGeometry x="1080" y="-70" width="90" height="140" as="geometry" />
        </mxCell>
        <mxCell id="3K-KdEBF6QyR_X1sGFoG-297" value="SortingNetwork" style="rounded=0;whiteSpace=wrap;html=1;" parent="1" vertex="1">
          <mxGeometry x="1270" y="-115" width="90" height="140" as="geometry" />
        </mxCell>
        <mxCell id="3K-KdEBF6QyR_X1sGFoG-298" value="" style="endArrow=classic;html=1;rounded=0;exitX=0.987;exitY=0.32;exitDx=0;exitDy=0;exitPerimeter=0;entryX=0;entryY=0.25;entryDx=0;entryDy=0;" parent="1" source="3K-KdEBF6QyR_X1sGFoG-268" target="3K-KdEBF6QyR_X1sGFoG-297" edge="1">
          <mxGeometry width="50" height="50" relative="1" as="geometry">
            <mxPoint x="1060" y="-80" as="sourcePoint" />
            <mxPoint x="1110" y="-130" as="targetPoint" />
            <Array as="points">
              <mxPoint x="1120" y="-120" />
              <mxPoint x="1120" y="-80" />
            </Array>
          </mxGeometry>
        </mxCell>
        <mxCell id="3K-KdEBF6QyR_X1sGFoG-299" value="" style="endArrow=classic;html=1;rounded=0;" parent="1" edge="1">
          <mxGeometry width="50" height="50" relative="1" as="geometry">
            <mxPoint x="1360" y="-1" as="sourcePoint" />
            <mxPoint x="1490" as="targetPoint" />
          </mxGeometry>
        </mxCell>
        <mxCell id="3K-KdEBF6QyR_X1sGFoG-300" value="" style="endArrow=classic;html=1;rounded=0;" parent="1" edge="1">
          <mxGeometry width="50" height="50" relative="1" as="geometry">
            <mxPoint x="1360" y="-40" as="sourcePoint" />
            <mxPoint x="1490" y="-39" as="targetPoint" />
          </mxGeometry>
        </mxCell>
        <mxCell id="3K-KdEBF6QyR_X1sGFoG-301" value="" style="endArrow=classic;html=1;rounded=0;" parent="1" edge="1">
          <mxGeometry width="50" height="50" relative="1" as="geometry">
            <mxPoint x="1360" y="-80" as="sourcePoint" />
            <mxPoint x="1490" y="-79" as="targetPoint" />
          </mxGeometry>
        </mxCell>
        <mxCell id="3K-KdEBF6QyR_X1sGFoG-302" value="min" style="text;html=1;align=center;verticalAlign=middle;whiteSpace=wrap;rounded=0;" parent="1" vertex="1">
          <mxGeometry x="1410" y="-115" width="60" height="30" as="geometry" />
        </mxCell>
        <mxCell id="3K-KdEBF6QyR_X1sGFoG-303" value="out2" style="text;html=1;align=center;verticalAlign=middle;whiteSpace=wrap;rounded=0;" parent="1" vertex="1">
          <mxGeometry x="1410" y="-70" width="60" height="30" as="geometry" />
        </mxCell>
        <mxCell id="3K-KdEBF6QyR_X1sGFoG-304" value="mid" style="text;html=1;align=center;verticalAlign=middle;whiteSpace=wrap;rounded=0;" parent="1" vertex="1">
          <mxGeometry x="1410" y="-30" width="60" height="30" as="geometry" />
        </mxCell>
        <mxCell id="3K-KdEBF6QyR_X1sGFoG-306" value="&lt;span style=&quot;color: rgb(0, 0, 0); font-family: Helvetica; font-size: 12px; font-style: normal; font-variant-ligatures: normal; font-variant-caps: normal; font-weight: 400; letter-spacing: normal; orphans: 2; text-align: center; text-indent: 0px; text-transform: none; widows: 2; word-spacing: 0px; -webkit-text-stroke-width: 0px; white-space: normal; background-color: rgb(251, 251, 251); text-decoration-thickness: initial; text-decoration-style: initial; text-decoration-color: initial; display: inline !important; float: none;&quot;&gt;Sort Ascending5&lt;/span&gt;" style="text;whiteSpace=wrap;html=1;" parent="1" vertex="1">
          <mxGeometry x="1090" y="-230" width="150" height="40" as="geometry" />
        </mxCell>
        <mxCell id="3K-KdEBF6QyR_X1sGFoG-308" value="SortingNetwork" style="rounded=0;whiteSpace=wrap;html=1;" parent="1" vertex="1">
          <mxGeometry x="890" y="263.7" width="90" height="106.3" as="geometry" />
        </mxCell>
        <mxCell id="3K-KdEBF6QyR_X1sGFoG-310" value="SortingNetwork" style="rounded=0;whiteSpace=wrap;html=1;" parent="1" vertex="1">
          <mxGeometry x="1010" y="291.84999999999997" width="90" height="106.3" as="geometry" />
        </mxCell>
        <mxCell id="3K-KdEBF6QyR_X1sGFoG-311" value="" style="endArrow=none;html=1;rounded=0;exitX=0.995;exitY=0.912;exitDx=0;exitDy=0;exitPerimeter=0;entryX=-0.031;entryY=0.643;entryDx=0;entryDy=0;entryPerimeter=0;" parent="1" source="3K-KdEBF6QyR_X1sGFoG-308" target="3K-KdEBF6QyR_X1sGFoG-310" edge="1">
          <mxGeometry width="50" height="50" relative="1" as="geometry">
            <mxPoint x="1010" y="400" as="sourcePoint" />
            <mxPoint x="1060" y="350" as="targetPoint" />
          </mxGeometry>
        </mxCell>
        <mxCell id="3K-KdEBF6QyR_X1sGFoG-312" value="" style="endArrow=none;html=1;rounded=0;exitX=1.001;exitY=0.829;exitDx=0;exitDy=0;exitPerimeter=0;" parent="1" source="3K-KdEBF6QyR_X1sGFoG-310" edge="1">
          <mxGeometry width="50" height="50" relative="1" as="geometry">
            <mxPoint x="1166" y="400" as="sourcePoint" />
            <mxPoint x="1190" y="440" as="targetPoint" />
            <Array as="points">
              <mxPoint x="1150" y="380" />
              <mxPoint x="1160" y="440" />
            </Array>
          </mxGeometry>
        </mxCell>
        <mxCell id="3K-KdEBF6QyR_X1sGFoG-314" value="" style="group" parent="1" vertex="1" connectable="0">
          <mxGeometry x="1131.5" y="370" width="9" height="23.69534555712272" as="geometry" />
        </mxCell>
        <mxCell id="3K-KdEBF6QyR_X1sGFoG-315" value="" style="rounded=0;whiteSpace=wrap;html=1;" parent="3K-KdEBF6QyR_X1sGFoG-314" vertex="1">
          <mxGeometry width="9" height="23.695345557122707" as="geometry" />
        </mxCell>
        <mxCell id="3K-KdEBF6QyR_X1sGFoG-316" value="" style="triangle;whiteSpace=wrap;html=1;rotation=270;" parent="3K-KdEBF6QyR_X1sGFoG-314" vertex="1">
          <mxGeometry x="1" y="18" width="7" height="4" as="geometry" />
        </mxCell>
        <mxCell id="3K-KdEBF6QyR_X1sGFoG-317" value="max" style="text;html=1;align=center;verticalAlign=middle;whiteSpace=wrap;rounded=0;" parent="1" vertex="1">
          <mxGeometry x="1090" y="340" width="60" height="30" as="geometry" />
        </mxCell>
        <mxCell id="3K-KdEBF6QyR_X1sGFoG-318" value="" style="group" parent="1" vertex="1" connectable="0">
          <mxGeometry x="1130" y="480" width="9" height="23.69534555712272" as="geometry" />
        </mxCell>
        <mxCell id="3K-KdEBF6QyR_X1sGFoG-319" value="" style="rounded=0;whiteSpace=wrap;html=1;" parent="3K-KdEBF6QyR_X1sGFoG-318" vertex="1">
          <mxGeometry width="9" height="23.695345557122707" as="geometry" />
        </mxCell>
        <mxCell id="3K-KdEBF6QyR_X1sGFoG-320" value="" style="triangle;whiteSpace=wrap;html=1;rotation=270;" parent="3K-KdEBF6QyR_X1sGFoG-318" vertex="1">
          <mxGeometry x="1" y="18" width="7" height="4" as="geometry" />
        </mxCell>
        <mxCell id="3K-KdEBF6QyR_X1sGFoG-321" value="" style="endArrow=none;html=1;rounded=0;entryX=0;entryY=0.19;entryDx=0;entryDy=0;entryPerimeter=0;exitX=1;exitY=0.755;exitDx=0;exitDy=0;exitPerimeter=0;" parent="1" source="3K-KdEBF6QyR_X1sGFoG-322" target="3K-KdEBF6QyR_X1sGFoG-323" edge="1">
          <mxGeometry width="50" height="50" relative="1" as="geometry">
            <mxPoint x="956" y="640" as="sourcePoint" />
            <mxPoint x="1006" y="590" as="targetPoint" />
          </mxGeometry>
        </mxCell>
        <mxCell id="3K-KdEBF6QyR_X1sGFoG-322" value="SortingNetwork" style="rounded=0;whiteSpace=wrap;html=1;" parent="1" vertex="1">
          <mxGeometry x="860" y="600" width="90" height="106.3" as="geometry" />
        </mxCell>
        <mxCell id="3K-KdEBF6QyR_X1sGFoG-323" value="SortingNetwork" style="rounded=0;whiteSpace=wrap;html=1;" parent="1" vertex="1">
          <mxGeometry x="956" y="660" width="90" height="106.3" as="geometry" />
        </mxCell>
        <mxCell id="3K-KdEBF6QyR_X1sGFoG-324" value="SortingNetwork" style="rounded=0;whiteSpace=wrap;html=1;" parent="1" vertex="1">
          <mxGeometry x="1050.5" y="600" width="90" height="106.3" as="geometry" />
        </mxCell>
        <mxCell id="3K-KdEBF6QyR_X1sGFoG-325" value="" style="endArrow=none;html=1;rounded=0;entryX=0;entryY=0.75;entryDx=0;entryDy=0;exitX=0.999;exitY=0.185;exitDx=0;exitDy=0;exitPerimeter=0;" parent="1" source="3K-KdEBF6QyR_X1sGFoG-323" target="3K-KdEBF6QyR_X1sGFoG-324" edge="1">
          <mxGeometry width="50" height="50" relative="1" as="geometry">
            <mxPoint x="1050" y="680" as="sourcePoint" />
            <mxPoint x="1060" y="600" as="targetPoint" />
          </mxGeometry>
        </mxCell>
        <mxCell id="3K-KdEBF6QyR_X1sGFoG-329" value="" style="endArrow=none;html=1;rounded=0;entryX=-0.005;entryY=0.881;entryDx=0;entryDy=0;entryPerimeter=0;exitX=1.006;exitY=0.376;exitDx=0;exitDy=0;exitPerimeter=0;" parent="1" source="3K-KdEBF6QyR_X1sGFoG-324" target="3K-KdEBF6QyR_X1sGFoG-241" edge="1">
          <mxGeometry width="50" height="50" relative="1" as="geometry">
            <mxPoint x="1150" y="640" as="sourcePoint" />
            <mxPoint x="1131.5" y="533.7" as="targetPoint" />
            <Array as="points">
              <mxPoint x="1180" y="640" />
              <mxPoint x="1180" y="560" />
            </Array>
          </mxGeometry>
        </mxCell>
        <mxCell id="3K-KdEBF6QyR_X1sGFoG-330" value="" style="group" parent="1" vertex="1" connectable="0">
          <mxGeometry x="1169" y="630" width="9" height="23.69534555712272" as="geometry" />
        </mxCell>
        <mxCell id="3K-KdEBF6QyR_X1sGFoG-331" value="" style="rounded=0;whiteSpace=wrap;html=1;" parent="3K-KdEBF6QyR_X1sGFoG-330" vertex="1">
          <mxGeometry width="9" height="23.695345557122707" as="geometry" />
        </mxCell>
        <mxCell id="3K-KdEBF6QyR_X1sGFoG-332" value="" style="triangle;whiteSpace=wrap;html=1;rotation=270;" parent="3K-KdEBF6QyR_X1sGFoG-330" vertex="1">
          <mxGeometry x="1" y="18" width="7" height="4" as="geometry" />
        </mxCell>
        <mxCell id="3K-KdEBF6QyR_X1sGFoG-334" value="stage 1" style="text;html=1;align=center;verticalAlign=middle;whiteSpace=wrap;rounded=0;" parent="1" vertex="1">
          <mxGeometry x="380" y="800" width="60" height="30" as="geometry" />
        </mxCell>
        <mxCell id="3K-KdEBF6QyR_X1sGFoG-335" value="stage 2" style="text;html=1;align=center;verticalAlign=middle;whiteSpace=wrap;rounded=0;" parent="1" vertex="1">
          <mxGeometry x="640" y="800" width="60" height="30" as="geometry" />
        </mxCell>
        <mxCell id="3K-KdEBF6QyR_X1sGFoG-336" value="stage3&amp;nbsp;" style="text;html=1;align=center;verticalAlign=middle;whiteSpace=wrap;rounded=0;" parent="1" vertex="1">
          <mxGeometry x="956" y="800" width="60" height="30" as="geometry" />
        </mxCell>
        <mxCell id="3K-KdEBF6QyR_X1sGFoG-337" value="stage4" style="text;html=1;align=center;verticalAlign=middle;whiteSpace=wrap;rounded=0;" parent="1" vertex="1">
          <mxGeometry x="1230" y="800" width="60" height="30" as="geometry" />
        </mxCell>
      </root>
    </mxGraphModel>
  </diagram>
</mxfile>
